<mxfile host="app.diagrams.net" agent="Mozilla/5.0 (Windows NT 10.0; Win64; x64) AppleWebKit/537.36 (KHTML, like Gecko) Chrome/135.0.0.0 Safari/537.36" version="26.2.14">
  <diagram name="PÃ¡gina-1" id="kMcEYbAoiU9MV2PFz0vR">
    <mxGraphModel dx="1826" dy="1177" grid="0" gridSize="10" guides="1" tooltips="1" connect="1" arrows="1" fold="1" page="0" pageScale="1" pageWidth="827" pageHeight="1169" math="0" shadow="0">
      <root>
        <mxCell id="0" />
        <mxCell id="1" parent="0" />
        <mxCell id="Vae7G2pyVFwEq37J8CTA-1" value="abogado" style="shape=umlActor;verticalLabelPosition=bottom;verticalAlign=top;html=1;outlineConnect=0;" parent="1" vertex="1">
          <mxGeometry x="130" y="120" width="30" height="60" as="geometry" />
        </mxCell>
        <mxCell id="Vae7G2pyVFwEq37J8CTA-2" value="Crear Caso" style="ellipse;whiteSpace=wrap;html=1;" parent="1" vertex="1">
          <mxGeometry x="320" y="-53" width="160" height="70" as="geometry" />
        </mxCell>
        <mxCell id="Vae7G2pyVFwEq37J8CTA-3" value="cliente" style="shape=umlActor;verticalLabelPosition=bottom;verticalAlign=top;html=1;outlineConnect=0;" parent="1" vertex="1">
          <mxGeometry x="130" y="360" width="30" height="60" as="geometry" />
        </mxCell>
        <mxCell id="Vae7G2pyVFwEq37J8CTA-6" value="Subir Documento" style="ellipse;whiteSpace=wrap;html=1;" parent="1" vertex="1">
          <mxGeometry x="320" y="62" width="160" height="70" as="geometry" />
        </mxCell>
        <mxCell id="Vae7G2pyVFwEq37J8CTA-7" value="A&lt;span style=&quot;background-color: transparent; color: light-dark(rgb(0, 0, 0), rgb(255, 255, 255));&quot;&gt;gregar Notas&lt;/span&gt;" style="ellipse;whiteSpace=wrap;html=1;" parent="1" vertex="1">
          <mxGeometry x="320" y="153" width="160" height="70" as="geometry" />
        </mxCell>
        <mxCell id="Vae7G2pyVFwEq37J8CTA-8" value="Consultar Estado" style="ellipse;whiteSpace=wrap;html=1;" parent="1" vertex="1">
          <mxGeometry x="317" y="410" width="160" height="70" as="geometry" />
        </mxCell>
        <mxCell id="Vae7G2pyVFwEq37J8CTA-9" value="" style="endArrow=none;html=1;rounded=0;entryX=0;entryY=0.5;entryDx=0;entryDy=0;" parent="1" source="Vae7G2pyVFwEq37J8CTA-3" target="Vae7G2pyVFwEq37J8CTA-8" edge="1">
          <mxGeometry width="50" height="50" relative="1" as="geometry">
            <mxPoint x="160" y="280" as="sourcePoint" />
            <mxPoint x="210" y="230" as="targetPoint" />
          </mxGeometry>
        </mxCell>
        <mxCell id="Vae7G2pyVFwEq37J8CTA-10" value="" style="endArrow=none;html=1;rounded=0;entryX=0;entryY=0.5;entryDx=0;entryDy=0;" parent="1" source="Vae7G2pyVFwEq37J8CTA-1" target="Vae7G2pyVFwEq37J8CTA-2" edge="1">
          <mxGeometry width="50" height="50" relative="1" as="geometry">
            <mxPoint x="160" y="150" as="sourcePoint" />
            <mxPoint x="210" y="100" as="targetPoint" />
          </mxGeometry>
        </mxCell>
        <mxCell id="Vae7G2pyVFwEq37J8CTA-11" value="" style="endArrow=none;html=1;rounded=0;entryX=0;entryY=0.5;entryDx=0;entryDy=0;" parent="1" source="Vae7G2pyVFwEq37J8CTA-1" target="Vae7G2pyVFwEq37J8CTA-6" edge="1">
          <mxGeometry width="50" height="50" relative="1" as="geometry">
            <mxPoint x="160" y="150" as="sourcePoint" />
            <mxPoint x="260" y="170" as="targetPoint" />
          </mxGeometry>
        </mxCell>
        <mxCell id="Vae7G2pyVFwEq37J8CTA-13" value="Programar Audiencia" style="ellipse;whiteSpace=wrap;html=1;" parent="1" vertex="1">
          <mxGeometry x="317" y="276" width="160" height="70" as="geometry" />
        </mxCell>
        <mxCell id="Vae7G2pyVFwEq37J8CTA-14" value="" style="endArrow=none;html=1;rounded=0;entryX=0;entryY=0.5;entryDx=0;entryDy=0;" parent="1" source="Vae7G2pyVFwEq37J8CTA-1" target="Vae7G2pyVFwEq37J8CTA-7" edge="1">
          <mxGeometry width="50" height="50" relative="1" as="geometry">
            <mxPoint x="160" y="150" as="sourcePoint" />
            <mxPoint x="290" y="220" as="targetPoint" />
          </mxGeometry>
        </mxCell>
        <mxCell id="Vae7G2pyVFwEq37J8CTA-15" value="Validar Formato" style="ellipse;whiteSpace=wrap;html=1;" parent="1" vertex="1">
          <mxGeometry x="550" y="110" width="160" height="70" as="geometry" />
        </mxCell>
        <mxCell id="Vae7G2pyVFwEq37J8CTA-18" value="" style="endArrow=classic;html=1;rounded=0;entryX=0;entryY=0;entryDx=0;entryDy=0;exitX=1;exitY=0.5;exitDx=0;exitDy=0;" parent="1" target="Vae7G2pyVFwEq37J8CTA-15" edge="1" source="Vae7G2pyVFwEq37J8CTA-6">
          <mxGeometry relative="1" as="geometry">
            <mxPoint x="480" y="194.5" as="sourcePoint" />
            <mxPoint x="580" y="194.5" as="targetPoint" />
          </mxGeometry>
        </mxCell>
        <mxCell id="Vae7G2pyVFwEq37J8CTA-19" value="include" style="edgeLabel;resizable=0;html=1;;align=center;verticalAlign=middle;" parent="Vae7G2pyVFwEq37J8CTA-18" connectable="0" vertex="1">
          <mxGeometry relative="1" as="geometry">
            <mxPoint y="-5" as="offset" />
          </mxGeometry>
        </mxCell>
        <mxCell id="Vae7G2pyVFwEq37J8CTA-28" value="" style="endArrow=none;html=1;rounded=0;entryX=0;entryY=0.5;entryDx=0;entryDy=0;" parent="1" source="Vae7G2pyVFwEq37J8CTA-1" target="Vae7G2pyVFwEq37J8CTA-13" edge="1">
          <mxGeometry width="50" height="50" relative="1" as="geometry">
            <mxPoint x="220" y="400" as="sourcePoint" />
            <mxPoint x="270" y="350" as="targetPoint" />
          </mxGeometry>
        </mxCell>
        <mxCell id="Vae7G2pyVFwEq37J8CTA-30" value="Notificar Cliente" style="ellipse;whiteSpace=wrap;html=1;" parent="1" vertex="1">
          <mxGeometry x="560" y="330" width="160" height="70" as="geometry" />
        </mxCell>
        <mxCell id="Vae7G2pyVFwEq37J8CTA-31" value="" style="endArrow=classic;html=1;rounded=0;exitX=1;exitY=0.5;exitDx=0;exitDy=0;entryX=0;entryY=0.5;entryDx=0;entryDy=0;" parent="1" source="Vae7G2pyVFwEq37J8CTA-13" target="Vae7G2pyVFwEq37J8CTA-30" edge="1">
          <mxGeometry relative="1" as="geometry">
            <mxPoint x="510" y="420" as="sourcePoint" />
            <mxPoint x="610" y="420" as="targetPoint" />
          </mxGeometry>
        </mxCell>
        <mxCell id="Vae7G2pyVFwEq37J8CTA-32" value="extend" style="edgeLabel;resizable=0;html=1;;align=center;verticalAlign=middle;" parent="Vae7G2pyVFwEq37J8CTA-31" connectable="0" vertex="1">
          <mxGeometry relative="1" as="geometry">
            <mxPoint y="-5" as="offset" />
          </mxGeometry>
        </mxCell>
        <mxCell id="6AmtcbOE4Wfi3HL8gJqx-2" value="Iniciar Sesion" style="ellipse;whiteSpace=wrap;html=1;" vertex="1" parent="1">
          <mxGeometry x="-99" y="231" width="160" height="70" as="geometry" />
        </mxCell>
        <mxCell id="6AmtcbOE4Wfi3HL8gJqx-3" value="" style="endArrow=none;html=1;rounded=0;exitX=1;exitY=1;exitDx=0;exitDy=0;" edge="1" parent="1" source="6AmtcbOE4Wfi3HL8gJqx-2" target="Vae7G2pyVFwEq37J8CTA-3">
          <mxGeometry width="50" height="50" relative="1" as="geometry">
            <mxPoint x="11" y="447" as="sourcePoint" />
            <mxPoint x="61" y="397" as="targetPoint" />
          </mxGeometry>
        </mxCell>
        <mxCell id="6AmtcbOE4Wfi3HL8gJqx-4" value="" style="endArrow=none;html=1;rounded=0;exitX=1;exitY=0;exitDx=0;exitDy=0;" edge="1" parent="1" source="6AmtcbOE4Wfi3HL8gJqx-2" target="Vae7G2pyVFwEq37J8CTA-1">
          <mxGeometry width="50" height="50" relative="1" as="geometry">
            <mxPoint x="15" y="194" as="sourcePoint" />
            <mxPoint x="65" y="144" as="targetPoint" />
          </mxGeometry>
        </mxCell>
      </root>
    </mxGraphModel>
  </diagram>
</mxfile>
